<svg xmlns="http://www.w3.org/2000/svg" width="119" height="80" fill="none" viewBox="0 0 119 80">
  <path fill="#777" d="M59.5 0c16.387 0 31.238 4.448 41.991 11.645C112.313 18.886 119 28.908 119 40c0 11.092-6.694 21.114-17.509 28.355C90.738 75.552 75.893 80 59.5 80c-16.387 0-31.238-4.448-41.991-11.645C6.687 61.114 0 51.092 0 40c0-11.092 6.694-21.114 17.509-28.355C28.262 4.448 43.107 0 59.5 0Zm-.552 78.855V70.14a118.736 118.736 0 0 1-8.503-.343c2.343 5.363 5.299 8.716 8.503 9.064v-.006Zm0-9.829V60.28a175.981 175.981 0 0 1-11.614-.417c.632 2.868 1.394 5.499 2.268 7.838.118.317.242.635.366.94 2.925.242 5.925.373 8.98.385Zm0-9.86V50.42c-4.518-.006-8.912-.1-13.133-.268a87.179 87.179 0 0 0 1.277 8.579c3.824.273 7.79.423 11.856.435Zm0-9.86V40.56H45.325c.013 2.911.15 5.748.39 8.473 4.253.167 8.684.26 13.24.273h-.007Zm0-9.86V30.7c-4.555.006-8.987.1-13.238.274a103.578 103.578 0 0 0-.39 8.472h13.628Zm0-9.86V20.84a174.02 174.02 0 0 0-11.856.436 84.83 84.83 0 0 0-1.277 8.578c4.22-.168 8.615-.261 13.133-.267Zm0-9.86V10.98c-3.055.013-6.055.143-8.98.386-.124.311-.248.622-.366.94-.874 2.338-1.636 4.97-2.269 7.837 3.756-.26 7.636-.404 11.615-.416Zm0-9.86V1.152c-3.198.349-6.154 3.702-8.503 9.064 2.776-.211 5.615-.33 8.503-.342v-.006Zm1.11-8.715v8.716c2.888.012 5.727.13 8.503.342-2.343-5.362-5.299-8.715-8.503-9.064v.006Zm0 9.83v8.746c3.979.012 7.859.155 11.615.416-.633-2.867-1.395-5.499-2.269-7.838a32.66 32.66 0 0 0-.365-.94 114.414 114.414 0 0 0-8.981-.385Zm0 9.86v8.745c4.518.007 8.912.1 13.133.268a87.183 87.183 0 0 0-1.277-8.578c-3.824-.274-7.79-.423-11.856-.436Zm0 9.859v8.746H73.68a100.922 100.922 0 0 0-.39-8.472 361.057 361.057 0 0 0-13.24-.274h.007Zm0 9.86v8.746c4.555-.006 8.987-.1 13.239-.273.241-2.725.371-5.562.39-8.473h-13.63Zm0 9.86v8.746a173.96 173.96 0 0 0 11.857-.435 84.781 84.781 0 0 0 1.276-8.579c-4.22.168-8.615.262-13.133.268Zm0 9.86v8.746c3.055-.012 6.055-.143 8.98-.386.125-.31.249-.622.366-.939.874-2.339 1.636-4.97 2.269-7.838-3.756.261-7.636.404-11.615.417Zm0 9.86v8.715c3.198-.348 6.154-3.701 8.503-9.064-2.776.212-5.615.33-8.503.343v.006ZM1.228 39.447h13.517c.025-1.829.192-3.627.49-5.387-8.045 1.524-13.19 3.403-14.001 5.387h-.007Zm14.627 0h13.622a52.83 52.83 0 0 1 .596-7.428c-4.457.43-8.547.958-12.16 1.562-.515.087-1.023.174-1.52.261a34.915 34.915 0 0 0-.539 5.605Zm14.732 0H44.21c.012-2.893.149-5.717.384-8.43-4.716.206-9.204.511-13.381.89a52.486 52.486 0 0 0-.626 7.54Zm44.203 0h13.623a51.614 51.614 0 0 0-.626-7.54 277.634 277.634 0 0 0-13.381-.89c.235 2.713.365 5.537.384 8.43Zm14.732 0h13.623a35.424 35.424 0 0 0-.539-5.605c-.496-.087-1.004-.174-1.518-.261-3.613-.604-7.704-1.132-12.16-1.562a52.9 52.9 0 0 1 .594 7.428Zm14.733 0h13.518c-.818-1.99-5.957-3.863-14.001-5.387.291 1.76.458 3.558.489 5.387h-.006Zm13.518 1.114h-13.518a35.13 35.13 0 0 1-.49 5.387c8.045-1.524 13.19-3.403 14.001-5.387h.007Zm-14.628 0H89.522a52.828 52.828 0 0 1-.595 7.427c4.457-.429 8.547-.958 12.161-1.561.514-.087 1.023-.174 1.518-.261.329-1.83.509-3.702.539-5.605Zm-14.732 0H74.79a102.682 102.682 0 0 1-.384 8.429c4.716-.206 9.204-.51 13.381-.89.384-2.438.595-4.958.626-7.54Zm-44.203 0H30.587c.025 2.581.242 5.1.626 7.54 4.177.385 8.665.684 13.381.889a105.504 105.504 0 0 1-.384-8.43Zm-14.733 0H15.854a35.79 35.79 0 0 0 .54 5.605c.496.087 1.004.174 1.518.26 3.614.604 7.704 1.133 12.16 1.562a52.9 52.9 0 0 1-.595-7.427Zm-14.732 0H1.227c.819 1.99 5.957 3.863 14.001 5.387a36.813 36.813 0 0 1-.49-5.387h.007Zm59.562-10.663c4.68.206 9.136.498 13.294.877a47.72 47.72 0 0 0-2.138-7.919 147.14 147.14 0 0 0-12.408-1.493 88.852 88.852 0 0 1 1.252 8.535Zm14.435.983c4.599.442 8.807.977 12.532 1.599.372.062.744.124 1.109.193a35.393 35.393 0 0 0-1.977-6.29c-4.04-1.312-8.646-2.432-13.69-3.315a49.556 49.556 0 0 1 2.032 7.813h-.006Zm14.813 2.01c6.625 1.25 11.46 2.817 13.821 4.596-1.667-4.062-7.301-7.757-15.594-10.637a37.22 37.22 0 0 1 1.773 6.04Zm13.821 9.63c-2.361 1.778-7.196 3.352-13.821 4.596a36.046 36.046 0 0 1-1.773 6.04c8.293-2.88 13.927-6.575 15.594-10.637Zm-14.999 4.814c-.365.062-.731.13-1.109.193-3.719.622-7.933 1.163-12.532 1.599a48.903 48.903 0 0 1-2.033 7.813c5.039-.884 9.65-2.003 13.691-3.316a35.477 35.477 0 0 0 1.977-6.289h.006Zm-14.782 1.897c-4.159.38-8.615.672-13.294.877a88.603 88.603 0 0 1-1.252 8.535c4.344-.342 8.497-.846 12.408-1.493a47.75 47.75 0 0 0 2.138-7.919Zm-42.902.877c-4.68-.205-9.135-.497-13.294-.877a47.724 47.724 0 0 0 2.138 7.92 147.25 147.25 0 0 0 12.408 1.492 88.859 88.859 0 0 1-1.252-8.535Zm-14.44-.983c-4.6-.441-8.808-.976-12.527-1.598a58.958 58.958 0 0 1-1.11-.193 35.46 35.46 0 0 0 1.978 6.29c4.041 1.312 8.646 2.431 13.691 3.315a49.566 49.566 0 0 1-2.033-7.813Zm-14.814-2.009C8.814 45.867 3.98 44.3 1.618 42.52c1.667 4.062 7.301 7.758 15.594 10.638a37.145 37.145 0 0 1-1.773-6.04Zm-13.821-9.63c2.361-1.779 7.196-3.353 13.821-4.597a36.115 36.115 0 0 1 1.773-6.04C8.919 29.73 3.285 33.425 1.618 37.487Zm14.999-4.814c.366-.063.731-.131 1.11-.193 3.718-.622 7.933-1.163 12.525-1.599a48.917 48.917 0 0 1 2.033-7.813c-5.039.883-9.65 2.003-13.691 3.316a35.45 35.45 0 0 0-1.977 6.289Zm14.782-1.898a284.15 284.15 0 0 1 13.294-.877c.298-2.998.72-5.86 1.252-8.535-4.345.342-8.497.846-12.408 1.493a47.747 47.747 0 0 0-2.138 7.92ZM69.8 10.315c3.235.286 6.377.703 9.408 1.238-4.183-5.245-9.526-8.84-15.451-10.016 2.293 1.698 4.35 4.74 6.05 8.778H69.8Zm11.038 1.543c4.32.84 8.405 1.922 12.167 3.222a40.622 40.622 0 0 0-2.616-2.55C84.62 7.377 77.238 3.67 68.983 2.04c4.5 1.99 8.528 5.362 11.801 9.742l.055.075Zm14.367 4.018c2.2.834 4.283 1.742 6.229 2.718 6.787 3.403 11.956 7.64 14.875 12.386-2.529-7.08-7.97-13.406-15.433-18.402-7.01-4.69-15.792-8.192-25.621-10.028 6.018 2.022 11.416 5.164 15.88 9.145a42.335 42.335 0 0 1 4.071 4.174v.007Zm21.104 33.156c-2.919 4.747-8.088 8.983-14.875 12.386a66.131 66.131 0 0 1-6.229 2.718 42.3 42.3 0 0 1-4.072 4.174c-4.462 3.981-9.867 7.13-15.879 9.145 9.83-1.83 18.618-5.338 25.622-10.028 7.462-4.99 12.897-11.322 15.432-18.402l.001.007Zm-23.298 15.9c-3.769 1.3-7.847 2.383-12.167 3.223l-.056.074c-3.272 4.38-7.3 7.752-11.8 9.742 8.261-1.63 15.643-5.344 21.407-10.488a42.268 42.268 0 0 0 2.616-2.55ZM79.215 68.46c-3.03.535-6.173.951-9.408 1.238-1.698 4.037-3.756 7.079-6.05 8.777 5.926-1.176 11.268-4.771 15.452-10.015h.006Zm-30.01 1.238a109.797 109.797 0 0 1-9.408-1.238c4.183 5.244 9.526 8.84 15.451 10.015-2.293-1.698-4.351-4.74-6.05-8.777h.007Zm-11.038-1.543c-4.32-.84-8.405-1.922-12.167-3.222.83.883 1.698 1.735 2.616 2.55 5.77 5.15 13.151 8.858 21.407 10.488-4.5-1.99-8.529-5.362-11.801-9.742l-.055-.074ZM23.8 64.136a66.21 66.21 0 0 1-6.23-2.718c-6.786-3.403-11.955-7.64-14.874-12.386 2.529 7.08 7.97 13.412 15.433 18.402 7.01 4.69 15.792 8.192 25.621 10.028-6.018-2.022-11.416-5.163-15.88-9.145a42.334 42.334 0 0 1-4.071-4.174v-.007ZM2.696 30.98c2.919-4.746 8.088-8.983 14.874-12.385a66.133 66.133 0 0 1 6.23-2.719 42.3 42.3 0 0 1 4.072-4.174c4.462-3.981 9.867-7.129 15.879-9.145-9.83 1.83-18.618 5.338-25.622 10.028-7.462 4.99-12.898 11.322-15.433 18.402v-.007Zm23.298-15.9c3.768-1.3 7.847-2.383 12.167-3.223l.056-.074c3.272-4.38 7.3-7.751 11.8-9.742-8.262 1.63-15.643 5.344-21.407 10.488a42.27 42.27 0 0 0-2.616 2.55Zm13.797-3.527c3.03-.535 6.173-.952 9.408-1.238 1.698-4.038 3.756-7.08 6.05-8.778C49.322 2.713 43.98 6.31 39.796 11.553h-.006Zm61.142 8.03a60.902 60.902 0 0 0-4.339-1.965 38.69 38.69 0 0 1 4.63 7.875l.13.044c7.264 2.432 12.675 5.505 15.483 8.983-2.231-5.755-7.903-10.918-15.903-14.93l-.001-.006Zm-6.396-2.78c-3.905-1.462-8.188-2.687-12.762-3.633 1.773 2.607 3.285 5.53 4.5 8.69 4.952.84 9.501 1.91 13.53 3.167a38.23 38.23 0 0 0-5.262-8.23l-.006.006Zm-14.33-3.938a105.9 105.9 0 0 0-9.935-1.387l.167.448c.924 2.47 1.723 5.263 2.38 8.31 4.252.33 8.33.81 12.185 1.425-1.289-3.228-2.906-6.19-4.797-8.796Zm-31.473-1.387c-3.427.317-6.75.784-9.935 1.387-1.89 2.607-3.508 5.562-4.797 8.796a148.454 148.454 0 0 1 12.185-1.424c.657-3.048 1.456-5.842 2.38-8.311l.167-.448Zm-11.503 1.698c-4.574.946-8.857 2.165-12.762 3.627-2.107 2.525-3.886 5.281-5.262 8.23 4.029-1.257 8.578-2.32 13.53-3.166 1.209-3.167 2.727-6.084 4.5-8.69h-.006Zm-14.826 4.442a65.182 65.182 0 0 0-4.338 1.966c-8.002 4.018-13.673 9.175-15.903 14.93 2.807-3.472 8.224-6.551 15.482-8.983l.13-.044a38.405 38.405 0 0 1 4.63-7.875v.006ZM2.163 45.5c2.23 5.754 7.902 10.917 15.903 14.93a60.88 60.88 0 0 0 4.338 1.965 38.697 38.697 0 0 1-4.63-7.875l-.13-.044C10.38 52.044 4.97 48.971 2.162 45.493v.007Zm22.3 17.71c3.905 1.462 8.188 2.687 12.762 3.627-1.773-2.607-3.285-5.53-4.5-8.69-4.952-.84-9.501-1.91-13.53-3.167a38.23 38.23 0 0 0 5.262 8.23h.006Zm14.33 3.938c3.185.603 6.508 1.07 9.935 1.387l-.167-.448c-.924-2.47-1.723-5.263-2.38-8.31-4.252-.33-8.33-.81-12.186-1.425 1.29 3.228 2.907 6.19 4.798 8.796Zm31.473 1.387c3.427-.317 6.75-.784 9.935-1.387 1.89-2.607 3.508-5.561 4.797-8.796a148.446 148.446 0 0 1-12.185 1.424c-.657 3.048-1.457 5.842-2.38 8.311l-.167.448Zm11.503-1.698c4.574-.946 8.857-2.165 12.762-3.627 2.107-2.525 3.886-5.281 5.262-8.23-4.029 1.257-8.578 2.32-13.53 3.166-1.209 3.167-2.727 6.084-4.5 8.69h.006Zm14.826-4.442a65.051 65.051 0 0 0 4.338-1.966c8.002-4.018 13.673-9.175 15.903-14.93-2.807 3.472-8.224 6.551-15.482 8.983l-.13.044a38.41 38.41 0 0 1-4.63 7.875v-.006Z"/>
</svg>
